<?xml version="1.0" standalone="no"?>
<!DOCTYPE svg PUBLIC "-//W3C//DTD SVG 20010904//EN"
 "http://www.w3.org/TR/2001/REC-SVG-20010904/DTD/svg10.dtd">
<svg version="1.0" xmlns="http://www.w3.org/2000/svg"
 width="160.000000pt" height="160.000000pt" viewBox="0 0 160.000000 160.000000"
 preserveAspectRatio="xMidYMid meet">
<metadata>
Created by potrace 1.11, written by Peter Selinger 2001-2013
</metadata>
<g transform="translate(0.000000,160.000000) scale(0.100000,-0.100000)"
fill="#000000" stroke="none">
<path d="M730 1578 c-19 -5 -43 -17 -52 -25 -10 -9 -24 -13 -32 -10 -10 4 -13
1 -9 -10 3 -8 1 -18 -4 -22 -19 -11 -51 -85 -63 -146 -14 -67 -18 -112 -19
-234 -1 -70 -3 -82 -16 -77 -13 5 -13 2 1 -19 12 -18 16 -58 18 -173 3 -162 0
-170 -43 -107 -21 32 -24 47 -26 162 -1 96 -6 139 -19 171 -10 23 -22 42 -28
42 -5 0 -7 4 -3 9 7 12 -28 23 -84 26 -25 1 -47 7 -49 13 -2 7 -8 12 -14 12
-7 0 -6 -5 1 -14 9 -11 6 -20 -15 -43 -50 -54 -67 -106 -69 -218 -1 -74 22
-196 48 -255 40 -92 97 -137 224 -179 l87 -28 2 -57 c2 -51 0 -56 -20 -57 -21
0 -21 0 0 -9 18 -7 20 -17 21 -115 1 -65 6 -112 14 -121 6 -8 8 -14 3 -14 -5
0 4 -7 20 -15 15 -8 35 -15 42 -15 8 0 14 -4 14 -10 0 -5 13 -10 29 -10 17 0
33 -5 36 -10 4 -6 13 -7 23 -1 11 6 24 6 35 0 9 -6 22 -7 29 -3 10 7 56 13
106 14 12 0 22 5 22 10 0 6 8 10 19 10 10 0 30 11 45 25 21 20 26 33 27 77 2
93 -8 82 104 117 39 13 78 30 89 39 10 10 19 16 20 14 3 -7 36 11 36 19 0 4
11 24 24 44 39 58 58 129 57 213 -1 92 -4 125 -12 132 -3 3 -22 27 -42 54 -20
27 -37 42 -37 34 0 -11 -8 -14 -31 -12 -38 5 -62 -7 -88 -45 -21 -30 -27 -53
-35 -157 -7 -77 -11 -86 -45 -107 -32 -19 -45 -13 -30 14 5 11 6 19 1 19 -4 0
-6 33 -4 72 3 40 5 219 6 398 1 426 -6 456 -139 568 -23 20 -119 25 -175 10z"/>
</g>
</svg>
